<svg width="180" height="14" viewBox="0 0 180 14" fill="none" xmlns="http://www.w3.org/2000/svg">
<g clip-path="url(#clip0_74_194)">
<path opacity="0.07" d="M22.1053 0H1.89474C0.821053 0 0 0.758333 0 1.75V12.25C0 13.2417 0.88421 14 1.89474 14H22.1053C23.1789 14 24 13.2417 24 12.25V1.75C24 0.758333 23.1158 0 22.1053 0Z" fill="black"/>
<path d="M22.1055 0.583313C22.8003 0.583313 23.3687 1.10831 23.3687 1.74998V12.25C23.3687 12.8916 22.8003 13.4166 22.1055 13.4166H1.89499C1.20026 13.4166 0.631836 12.8916 0.631836 12.25V1.74998C0.631836 1.10831 1.20026 0.583313 1.89499 0.583313H22.1055Z" fill="white"/>
<path d="M17.874 5.89169H17.6845C17.4319 6.47502 17.2424 6.76669 17.0529 7.64169H18.2529C18.0635 6.76669 18.0635 6.35835 17.874 5.89169ZM19.7056 9.33335H18.6319C18.5687 9.33335 18.5687 9.33335 18.5056 9.27502L18.3793 8.75002L18.3161 8.63335H16.8003C16.7372 8.63335 16.674 8.63335 16.674 8.75002L16.4845 9.27502C16.4845 9.33335 16.4214 9.33335 16.4214 9.33335H15.095L15.2214 9.04169L17.0529 5.07502C17.0529 4.78335 17.2424 4.66669 17.5582 4.66669H18.5056C18.5687 4.66669 18.6319 4.66669 18.6319 4.78335L19.5161 8.57502C19.5793 8.80835 19.6424 8.98335 19.6424 9.21669C19.7056 9.27502 19.7056 9.27502 19.7056 9.33335ZM11.2424 9.15835L11.495 8.10835C11.5582 8.10835 11.6214 8.16669 11.6214 8.16669C12.0635 8.34169 12.5056 8.45835 12.9477 8.40002C13.074 8.40002 13.2635 8.34169 13.3898 8.28335C13.7056 8.16669 13.7056 7.87502 13.4529 7.64169C13.3266 7.52502 13.1371 7.46669 12.9477 7.35002C12.695 7.23335 12.4424 7.11669 12.2529 6.94169C11.495 6.35835 11.7477 5.54169 12.1898 5.13335C12.5687 4.90002 12.7582 4.66669 13.2635 4.66669C14.0214 4.66669 14.8424 4.66669 15.2214 4.78335H15.2845C15.2214 5.13335 15.1582 5.42502 15.0319 5.77502C14.7161 5.65835 14.4003 5.54169 14.0845 5.54169C13.895 5.54169 13.7056 5.54169 13.5161 5.60002C13.3898 5.60002 13.3266 5.65835 13.2635 5.71669C13.1371 5.83335 13.1371 6.00835 13.2635 6.12502L13.5793 6.35835C13.8319 6.47502 14.0845 6.59169 14.274 6.70835C14.5898 6.88335 14.9056 7.17502 14.9687 7.52502C15.095 8.05002 14.9056 8.51669 14.4003 8.86669C14.0845 9.10002 13.9582 9.21669 13.5161 9.21669C12.6319 9.21669 11.9372 9.27502 11.3687 9.10002C11.3056 9.21669 11.3056 9.21669 11.2424 9.15835ZM9.03189 9.33335C9.09505 8.92502 9.09505 8.92502 9.1582 8.75002C9.47399 7.46669 9.78978 6.12502 10.0424 4.84169C10.1056 4.72502 10.1056 4.66669 10.2319 4.66669H11.3687C11.2424 5.36669 11.1161 5.89169 10.9266 6.53335C10.7371 7.40835 10.5477 8.28335 10.295 9.15835C10.295 9.27502 10.2319 9.27502 10.1056 9.27502M3.1582 4.78335C3.1582 4.72502 3.28452 4.66669 3.34768 4.66669H5.49504C5.81083 4.66669 6.06347 4.84169 6.12662 5.13335L6.69505 7.70002C6.69505 7.75835 6.69504 7.75835 6.7582 7.81669C6.7582 7.75835 6.82136 7.75835 6.82136 7.75835L8.14768 4.78335C8.08452 4.72502 8.14768 4.66669 8.21083 4.66669H9.53715C9.53715 4.72502 9.53715 4.72502 9.47399 4.78335L7.5161 9.04169C7.45294 9.15835 7.45294 9.21669 7.38978 9.27502C7.32662 9.33335 7.20031 9.27502 7.07399 9.27502H6.12662C6.06347 9.27502 6.00031 9.27502 6.00031 9.15835L4.98978 5.54169C4.86347 5.42502 4.67399 5.25002 4.42136 5.19169C4.04241 5.01669 3.34768 4.90002 3.22136 4.90002L3.1582 4.78335Z" fill="#142688"/>
</g>
<g clip-path="url(#clip1_74_194)">
<path opacity="0.07" d="M48.1053 0H27.8947C26.8211 0 26 0.758333 26 1.75V12.25C26 13.2417 26.8842 14 27.8947 14H48.1053C49.1789 14 50 13.2417 50 12.25V1.75C50 0.758333 49.1158 0 48.1053 0Z" fill="black"/>
<path d="M48.1055 0.583313C48.8003 0.583313 49.3687 1.10831 49.3687 1.74998V12.25C49.3687 12.8916 48.8003 13.4166 48.1055 13.4166H27.895C27.2003 13.4166 26.6318 12.8916 26.6318 12.25V1.74998C26.6318 1.10831 27.2003 0.583313 27.895 0.583313H48.1055Z" fill="#5A31F4"/>
<path d="M39.5037 5.66601C39.5037 6.63901 38.7603 7.33317 37.722 7.33317H36.7437C36.7276 7.3334 36.7118 7.33792 36.6984 7.3462C36.6849 7.35447 36.6744 7.36616 36.6679 7.37984C36.6638 7.38889 36.6616 7.3986 36.6616 7.40842V8.68709C36.6616 8.69702 36.6595 8.70686 36.6553 8.71602C36.6512 8.72519 36.6452 8.73351 36.6375 8.74051C36.6299 8.7475 36.6208 8.75304 36.6109 8.75678C36.6009 8.76053 36.5903 8.76242 36.5795 8.76234H35.8949C35.8731 8.76234 35.8522 8.75435 35.8368 8.74013C35.8214 8.72591 35.8128 8.70662 35.8128 8.68651V4.07526C35.8125 4.06023 35.8172 4.04549 35.8262 4.03299C35.8353 4.02049 35.8482 4.01082 35.8633 4.00526C35.8733 4.00139 35.884 3.99941 35.8949 3.99942H37.7265C38.7603 3.99942 39.5037 4.69359 39.5037 5.66659V5.66601ZM38.6498 5.66601C38.6498 5.10718 38.2342 4.69884 37.6709 4.69884H36.7437C36.7329 4.69884 36.7223 4.7008 36.7123 4.70461C36.7023 4.70842 36.6933 4.71401 36.6857 4.72105C36.678 4.72809 36.672 4.73645 36.6679 4.74565C36.6637 4.75486 36.6616 4.76472 36.6616 4.77468V6.55384C36.6615 6.56382 36.6636 6.57371 36.6677 6.58294C36.6718 6.59216 36.6779 6.60052 36.6856 6.60751C36.6932 6.61457 36.7023 6.62017 36.7123 6.62398C36.7222 6.62778 36.7329 6.62972 36.7437 6.62967H37.6709C38.2342 6.63259 38.6498 6.22426 38.6498 5.66601ZM39.7071 7.87742C39.6999 7.72798 39.7335 7.57926 39.8049 7.445C39.8764 7.31073 39.9832 7.19524 40.1157 7.10917C40.3829 6.92484 40.8003 6.82917 41.4136 6.80934L42.066 6.78834V6.61159C42.066 6.25751 41.8071 6.10817 41.3915 6.10817C40.9759 6.10817 40.7126 6.24292 40.6526 6.46401C40.6474 6.47954 40.6369 6.49309 40.6227 6.50257C40.6084 6.51206 40.5912 6.51695 40.5736 6.51651H39.9281C39.9104 6.51672 39.893 6.5116 39.8787 6.50193C39.8643 6.49225 39.8537 6.47854 39.8486 6.46284C39.8451 6.45245 39.8443 6.44149 39.846 6.43076C39.942 5.90692 40.417 5.50909 41.4212 5.50909C42.4898 5.50909 42.8757 5.96584 42.8757 6.83676V8.68709C42.8756 8.6971 42.8734 8.70699 42.8692 8.7162C42.8649 8.72541 42.8587 8.73376 42.851 8.74075C42.8432 8.74775 42.8341 8.75326 42.824 8.75696C42.8139 8.76067 42.8032 8.7625 42.7923 8.76234H42.1418C42.12 8.76234 42.0992 8.75435 42.0838 8.74013C42.0684 8.72591 42.0597 8.70662 42.0597 8.68651V8.54884C42.0599 8.53742 42.0563 8.52621 42.0495 8.51673C42.0426 8.50724 42.0327 8.49992 42.0212 8.49576C42.0098 8.49161 41.9973 8.49062 41.9853 8.4929C41.9733 8.49518 41.9623 8.50063 41.9536 8.50859C41.7578 8.70343 41.4433 8.84401 40.9387 8.84401C40.1966 8.84401 39.7071 8.48992 39.7071 7.87742ZM42.066 7.47668V7.33317L41.2203 7.37401C40.7751 7.39501 40.5161 7.56417 40.5161 7.85001C40.5161 8.10901 40.7536 8.25251 41.1692 8.25251C41.7332 8.25251 42.066 7.97251 42.066 7.47668ZM43.5288 10.16V9.62392C43.5289 9.61269 43.5318 9.60163 43.5371 9.59154C43.5425 9.58145 43.5502 9.57259 43.5597 9.56559C43.5692 9.55854 43.5802 9.55347 43.5919 9.55075C43.6037 9.54803 43.616 9.54772 43.6279 9.54984C43.7277 9.56676 43.8288 9.57551 43.9305 9.57551C44.1046 9.58432 44.2769 9.5387 44.4196 9.44599C44.5622 9.35328 44.6669 9.2189 44.7168 9.06451L44.7591 8.94143C44.7654 8.92481 44.7654 8.90671 44.7591 8.89009L43.4043 5.69868C43.3965 5.68116 43.396 5.66156 43.403 5.64375C43.4101 5.62593 43.424 5.61119 43.4422 5.60242C43.4543 5.59655 43.4678 5.59354 43.4814 5.59367H44.1382C44.1551 5.59372 44.1715 5.59848 44.1854 5.60733C44.1993 5.61618 44.2099 5.62871 44.2159 5.64326L45.1355 7.89434C45.1412 7.90945 45.1519 7.92254 45.166 7.93175C45.1802 7.94096 45.1971 7.94583 45.2145 7.94568C45.2317 7.94566 45.2486 7.94072 45.2627 7.93153C45.2768 7.92234 45.2876 7.90936 45.2934 7.89434L46.0923 5.64968C46.0978 5.6342 46.1084 5.62074 46.1227 5.61129C46.1371 5.60183 46.1543 5.59689 46.1719 5.59718H46.8515C46.8719 5.59729 46.8916 5.60419 46.9069 5.61662C46.9222 5.62906 46.9321 5.64618 46.9349 5.66484C46.9364 5.67729 46.9347 5.68989 46.9298 5.70159L45.4803 9.24593C45.1469 10.0702 44.5753 10.2802 43.9456 10.2802C43.8261 10.2832 43.7068 10.2703 43.5913 10.2417C43.5719 10.2373 43.5549 10.2266 43.5433 10.2117C43.5317 10.1967 43.5264 10.1783 43.5281 10.16H43.5288ZM31.4119 3.73342C30.5501 3.72748 29.7183 4.02516 29.0858 4.56584C29.0589 4.58845 29.0421 4.61953 29.0387 4.65298C29.0353 4.68643 29.0456 4.71985 29.0675 4.74667L29.4578 5.23609C29.4705 5.25259 29.4869 5.26632 29.5059 5.2763C29.525 5.28627 29.5462 5.29225 29.568 5.29381C29.5898 5.29537 29.6117 5.29247 29.6322 5.28532C29.6527 5.27817 29.6712 5.26693 29.6865 5.25242C29.9138 5.04394 30.1837 4.87932 30.4806 4.76815C30.7775 4.65699 31.0954 4.6015 31.4157 4.60492C32.7547 4.60492 33.4538 5.52892 33.4538 6.44242C33.4538 7.43409 32.7193 8.13293 31.6633 8.14634C30.8473 8.14634 30.2321 7.65051 30.2321 6.99484C30.2328 6.82905 30.2736 6.66549 30.3515 6.51612C30.4295 6.36675 30.5425 6.23535 30.6825 6.13151C30.7122 6.10893 30.7312 6.07639 30.7351 6.04098C30.739 6.00557 30.7276 5.97017 30.7033 5.94251L30.2928 5.46709C30.2804 5.45247 30.2649 5.44032 30.2473 5.43137C30.2297 5.42242 30.2103 5.41685 30.1903 5.415C30.1703 5.41314 30.1501 5.41505 30.1309 5.42059C30.1117 5.42613 30.094 5.43521 30.0787 5.44726C29.8272 5.63354 29.624 5.8693 29.4837 6.13734C29.344 6.40479 29.2712 6.69787 29.2709 6.99484C29.2709 8.12359 30.3161 9.00851 31.6551 9.01551H31.674C33.2637 8.99684 34.4132 7.91651 34.4132 6.44009C34.4132 5.12934 33.3603 3.73342 31.4119 3.73342Z" fill="white"/>
</g>
<g clip-path="url(#clip2_74_194)">
<path opacity="0.07" d="M74.1053 0H53.8947C52.8211 0 52 0.758333 52 1.75V12.25C52 13.2417 52.8842 14 53.8947 14H74.1053C75.1789 14 76 13.2417 76 12.25V1.75C76 0.758333 75.1158 0 74.1053 0Z" fill="black"/>
<path d="M74.1055 0.583313C74.8003 0.583313 75.3687 1.10831 75.3687 1.74998V12.25C75.3687 12.8916 74.8003 13.4166 74.1055 13.4166H53.895C53.2003 13.4166 52.6318 12.8916 52.6318 12.25V1.74998C52.6318 1.10831 53.2003 0.583313 53.895 0.583313H74.1055Z" fill="white"/>
<path d="M67.0944 4.84169C67.2207 4.25835 67.0944 3.85002 66.7155 3.50002C66.3365 3.09169 65.6418 2.91669 64.7576 2.91669H62.1681C61.9786 2.91669 61.8523 3.03335 61.7892 3.20835L60.8418 9.10002C60.8418 9.21669 60.905 9.33335 61.0313 9.33335H62.7365L62.9892 7.35002L64.126 6.06669L67.0944 4.84169Z" fill="#003087"/>
<path d="M67.0949 4.84167L66.9686 4.95834C66.6528 6.59167 65.5791 7.17501 64.0633 7.17501H63.3686C63.1791 7.17501 63.0528 7.29167 62.9896 7.46667L62.6107 9.74167L62.4844 10.325C62.4844 10.4417 62.5475 10.5583 62.6738 10.5583H64.0002C64.1896 10.5583 64.316 10.4417 64.316 10.325V10.2667L64.5686 8.86667V8.80834C64.5686 8.69167 64.7581 8.57501 64.8844 8.57501H65.0738C66.4002 8.57501 67.4107 8.10834 67.6633 6.70834C67.7896 6.12501 67.7265 5.65834 67.4107 5.30834C67.3475 5.01667 67.2212 4.90001 67.0949 4.84167Z" fill="#3086C8"/>
<path d="M66.7156 4.72499C66.6524 4.66665 66.5893 4.66665 66.5261 4.66665C66.4629 4.66665 66.3998 4.66665 66.3366 4.60832C66.1472 4.54999 65.8945 4.54999 65.6419 4.54999H63.7472C63.684 4.54999 63.6208 4.54999 63.6208 4.60832C63.4945 4.66665 63.4314 4.72499 63.4314 4.84165L62.9893 7.40832V7.46665C62.9893 7.29165 63.1787 7.17499 63.3682 7.17499H64.1893C65.7682 7.17499 66.7787 6.59165 67.0945 4.95832V4.84165C67.0314 4.78332 66.905 4.72499 66.7787 4.72499H66.7156Z" fill="#012169"/>
</g>
<g clip-path="url(#clip3_74_194)">
<path opacity="0.07" d="M100.105 0H79.8947C78.8211 0 78 0.758333 78 1.75V12.25C78 13.2417 78.8842 14 79.8947 14H100.105C101.179 14 102 13.2417 102 12.25V1.75C102 0.758333 101.116 0 100.105 0Z" fill="black"/>
<path d="M100.106 0.583313C100.8 0.583313 101.369 1.10831 101.369 1.74998V12.25C101.369 12.8916 100.8 13.4166 100.106 13.4166H79.895C79.2003 13.4166 78.6318 12.8916 78.6318 12.25V1.74998C78.6318 1.10831 79.2003 0.583313 79.895 0.583313H100.106Z" fill="white"/>
<path d="M87.4737 11.0834C89.9153 11.0834 91.8947 9.25518 91.8947 7.00002C91.8947 4.74486 89.9153 2.91669 87.4737 2.91669C85.032 2.91669 83.0526 4.74486 83.0526 7.00002C83.0526 9.25518 85.032 11.0834 87.4737 11.0834Z" fill="#EB001B"/>
<path d="M92.5265 11.0834C94.9682 11.0834 96.9476 9.25518 96.9476 7.00002C96.9476 4.74486 94.9682 2.91669 92.5265 2.91669C90.0848 2.91669 88.1055 4.74486 88.1055 7.00002C88.1055 9.25518 90.0848 11.0834 92.5265 11.0834Z" fill="#FFC000"/>
<path d="M91.8949 6.99999C91.8949 5.59999 91.137 4.37499 90.0002 3.67499C88.8634 4.43332 88.1055 5.65832 88.1055 6.99999C88.1055 8.34165 88.8634 9.62499 90.0002 10.325C91.137 9.62499 91.8949 8.39999 91.8949 6.99999Z" fill="#FF5F00"/>
</g>
<g clip-path="url(#clip4_74_194)">
<path opacity="0.07" d="M126.105 0H105.895C104.821 0 104 0.758333 104 1.75V12.25C104 13.2417 104.884 14 105.895 14H126.105C127.179 14 128 13.2417 128 12.25V1.75C128 0.758333 127.116 0 126.105 0Z" fill="black"/>
<path d="M126.106 0.583313C126.8 0.583313 127.369 1.10831 127.369 1.74998V12.25C127.369 12.8916 126.8 13.4166 126.106 13.4166H105.895C105.2 13.4166 104.632 12.8916 104.632 12.25V1.74998C104.632 1.10831 105.2 0.583313 105.895 0.583313H126.106Z" fill="white"/>
<path d="M115.427 6.98607V8.85274H114.784V4.24441H116.484C116.687 4.24122 116.89 4.27525 117.079 4.34452C117.268 4.4138 117.441 4.51696 117.587 4.64807C117.725 4.7673 117.837 4.91055 117.915 5.06961C117.994 5.22868 118.037 5.40045 118.044 5.57511C118.05 5.74977 118.019 5.92389 117.953 6.08752C117.887 6.25115 117.786 6.40108 117.657 6.52874L117.587 6.59641C117.29 6.85716 116.894 6.99891 116.484 6.98957L115.427 6.98607ZM115.427 4.80907V6.43541H116.5C116.738 6.44241 116.968 6.35666 117.134 6.19974C117.254 6.08492 117.334 5.94025 117.365 5.78373C117.396 5.6272 117.376 5.46573 117.308 5.31939C117.241 5.17305 117.128 5.04832 116.984 4.96069C116.84 4.87307 116.672 4.82643 116.5 4.82657L115.427 4.80907ZM119.522 5.59541C119.933 5.57791 120.334 5.70507 120.645 5.95299C120.926 6.20382 121.076 6.55382 121.056 6.91491V8.85974H120.444V8.41291H120.413C120.303 8.5805 120.148 8.71875 119.963 8.81399C119.777 8.90924 119.568 8.95818 119.356 8.95599C119.01 8.96634 118.672 8.85526 118.411 8.64507C118.288 8.55187 118.188 8.43391 118.121 8.30011C118.054 8.1663 118.021 8.02016 118.024 7.87274C118.017 7.72375 118.048 7.57531 118.116 7.43976C118.183 7.30421 118.284 7.18547 118.411 7.09341C118.723 6.88642 119.1 6.78076 119.484 6.79299C119.81 6.78132 120.134 6.84724 120.425 6.98607V6.86474C120.427 6.76442 120.404 6.66497 120.359 6.57391C120.313 6.48286 120.246 6.40258 120.161 6.33916C119.992 6.1972 119.771 6.1204 119.542 6.12449C119.377 6.12304 119.213 6.16069 119.067 6.23388C118.922 6.30706 118.798 6.41336 118.709 6.54274L118.144 6.21374C118.298 6.01062 118.505 5.84717 118.746 5.73894C118.987 5.6307 119.255 5.58129 119.522 5.59541ZM118.709 7.88674C118.708 7.96229 118.727 8.03703 118.764 8.10437C118.801 8.17171 118.855 8.22959 118.922 8.27291C119.063 8.37557 119.238 8.42982 119.418 8.42632C119.689 8.42574 119.949 8.32716 120.142 8.15099C120.334 7.98416 120.444 7.75141 120.444 7.50757C120.201 7.34792 119.905 7.27084 119.608 7.28941C119.376 7.281 119.148 7.3411 118.957 7.46091C118.881 7.50776 118.819 7.57109 118.776 7.64534C118.733 7.71958 118.71 7.80247 118.709 7.88674ZM124.574 5.69924L122.433 10.2434H121.771L122.58 8.65207L121.176 5.69924H121.872L122.89 7.96549L123.881 5.69924H124.574Z" fill="#5F6368"/>
<path d="M112.834 6.58238C112.834 6.40272 112.819 6.22305 112.788 6.04572H110.078V7.0648H111.626C111.595 7.22676 111.528 7.38117 111.43 7.5188C111.333 7.65642 111.206 7.77441 111.058 7.86572V8.52722H111.982C112.263 8.27597 112.484 7.97309 112.631 7.63812C112.778 7.30314 112.847 6.9435 112.834 6.58238Z" fill="#4285F4"/>
<path d="M110.081 9.17043C110.779 9.18814 111.459 8.95932 111.982 8.53051L111.056 7.86551C110.833 7.99726 110.581 8.08041 110.319 8.10865C110.056 8.13689 109.79 8.10948 109.541 8.02849C109.292 7.9475 109.066 7.81507 108.88 7.64127C108.695 7.46747 108.554 7.25688 108.47 7.02551H107.521V7.70801C107.759 8.14728 108.124 8.51679 108.576 8.7751C109.028 9.03341 109.549 9.1703 110.081 9.17043Z" fill="#34A853"/>
<path d="M108.471 7.02936C108.351 6.70112 108.351 6.34552 108.471 6.01728V5.33478H107.522C107.32 5.70313 107.215 6.11032 107.215 6.52332C107.215 6.93632 107.32 7.34351 107.522 7.71186L108.471 7.02936Z" fill="#FFC000"/>
<path d="M110.081 4.92359C110.489 4.91669 110.884 5.05927 111.18 5.32025L112.001 4.566C111.477 4.11218 110.783 3.86464 110.065 3.87592C109.536 3.87837 109.019 4.01592 108.57 4.27333C108.121 4.53074 107.758 4.89795 107.521 5.33425L108.47 6.01734C108.581 5.70238 108.796 5.42747 109.085 5.23128C109.374 5.03508 109.722 4.92747 110.081 4.92359Z" fill="#EA4335"/>
</g>
<g clip-path="url(#clip5_74_194)">
<path d="M151.718 0H132.282C132.201 0 132.119 0 132.039 0.000396357C131.97 0.000924834 131.902 0.00158543 131.834 0.00330298C131.685 0.00700231 131.536 0.0151937 131.389 0.0395036C131.242 0.0627948 131.099 0.10621 130.966 0.16832C130.698 0.29424 130.48 0.495468 130.343 0.743038C130.276 0.866234 130.229 0.998053 130.204 1.13411C130.177 1.2698 130.169 1.40813 130.165 1.54526C130.163 1.60823 130.162 1.67121 130.161 1.7342C130.161 1.80871 130.161 1.88349 130.161 1.9584V12.0415C130.161 12.1164 130.161 12.191 130.161 12.2659C130.162 12.3288 130.163 12.3918 130.165 12.4549C130.169 12.5917 130.177 12.7302 130.204 12.8658C130.229 13.0018 130.276 13.1336 130.343 13.2568C130.411 13.3799 130.499 13.4922 130.605 13.5898C130.711 13.6875 130.832 13.7691 130.965 13.8315C131.101 13.8954 131.24 13.9359 131.389 13.9606C131.536 13.9848 131.685 13.993 131.834 13.9967C131.902 13.9981 131.97 13.9989 132.039 13.9993C132.119 13.9999 132.201 13.9999 132.282 13.9999H151.718C151.799 13.9999 151.88 13.9999 151.961 13.9993C152.029 13.9991 152.097 13.9981 152.165 13.9967C152.314 13.993 152.464 13.9848 152.611 13.9606C152.758 13.9373 152.901 13.8938 153.034 13.8315C153.302 13.7055 153.52 13.5043 153.656 13.2568C153.725 13.1317 153.769 13.0036 153.795 12.8658C153.822 12.7302 153.831 12.5917 153.835 12.4549C153.836 12.3918 153.837 12.3288 153.838 12.2659C153.838 12.191 153.838 12.1164 153.838 12.0415V1.95853C153.838 1.88362 153.838 1.80884 153.838 1.73406C153.837 1.67112 153.836 1.60818 153.835 1.54526C153.831 1.40813 153.822 1.2698 153.795 1.13411C153.77 0.99803 153.723 0.866193 153.656 0.743038C153.52 0.495512 153.302 0.294299 153.034 0.16832C152.9 0.106274 152.758 0.0629043 152.611 0.0396357C152.464 0.0151937 152.314 0.00713443 152.165 0.0034351C152.097 0.00183478 152.029 0.000865853 151.961 0.000528476C151.88 0 151.799 0 151.718 0Z" fill="#E4E4E4"/>
<path d="M151.718 0.466675L151.957 0.467071C152.021 0.467468 152.086 0.468128 152.151 0.469714C152.265 0.47262 152.397 0.478301 152.521 0.49878C152.628 0.516616 152.718 0.5437 152.805 0.584393C152.977 0.665588 153.118 0.795466 153.206 0.955251C153.249 1.03452 153.279 1.11723 153.298 1.21724C153.32 1.33007 153.326 1.45281 153.329 1.55811C153.331 1.61756 153.332 1.67702 153.332 1.73779C153.333 1.81138 153.333 1.88484 153.333 1.95856V12.0416C153.333 12.1154 153.333 12.1888 153.332 12.2639C153.332 12.3233 153.331 12.3828 153.329 12.4422C153.326 12.5474 153.32 12.6701 153.298 12.7843C153.281 12.8751 153.25 12.9631 153.205 13.0452C153.117 13.205 152.977 13.3349 152.804 13.4161C152.718 13.4565 152.628 13.4836 152.522 13.5013C152.396 13.522 152.258 13.5277 152.154 13.5303C152.088 13.5317 152.023 13.5326 151.956 13.5329C151.877 13.5334 151.797 13.5334 151.718 13.5334H132.278C132.199 13.5334 132.121 13.5334 132.041 13.5329C131.976 13.5326 131.912 13.5318 131.847 13.5305C131.741 13.5278 131.603 13.522 131.478 13.5014C131.379 13.4862 131.283 13.4572 131.194 13.4155C131.108 13.3753 131.03 13.3226 130.962 13.2596C130.894 13.1968 130.837 13.1245 130.793 13.0452C130.748 12.9626 130.717 12.8742 130.701 12.7829C130.678 12.6689 130.672 12.5467 130.669 12.4423C130.668 12.3827 130.667 12.323 130.666 12.2633L130.666 12.088V1.91232L130.666 1.73726C130.667 1.6775 130.668 1.61773 130.669 1.55798C130.672 1.45334 130.678 1.33113 130.701 1.21619C130.717 1.12514 130.748 1.0369 130.793 0.954459C130.837 0.875183 130.894 0.802806 130.962 0.740029C131.03 0.677076 131.109 0.624459 131.194 0.584129C131.284 0.54272 131.379 0.513948 131.478 0.49878C131.601 0.478301 131.734 0.47262 131.848 0.469714C131.912 0.468241 131.977 0.46736 132.041 0.467071L132.281 0.466675H151.718Z" fill="white"/>
<path d="M136.385 4.72592C136.586 4.49405 136.722 4.18264 136.686 3.8645C136.392 3.87798 136.034 4.04352 135.826 4.27566C135.64 4.47436 135.475 4.79872 135.518 5.10351C135.848 5.12994 136.177 4.95131 136.385 4.72592ZM136.682 5.1631C136.203 5.13668 135.796 5.41413 135.567 5.41413C135.339 5.41413 134.988 5.17631 134.609 5.18279C134.116 5.18939 133.659 5.44702 133.408 5.85659C132.894 6.67573 133.273 7.89123 133.773 8.55843C134.016 8.88873 134.309 9.25205 134.695 9.23897C135.06 9.22576 135.203 9.02098 135.646 9.02098C136.089 9.02098 136.218 9.23897 136.604 9.23237C137.004 9.22576 137.254 8.90207 137.497 8.57177C137.776 8.19523 137.89 7.83191 137.898 7.81209C137.89 7.80548 137.126 7.53451 137.118 6.72197C137.111 6.04156 137.719 5.71787 137.748 5.69792C137.404 5.22916 136.868 5.17631 136.682 5.1631" fill="black"/>
<path d="M141.458 4.24237C142.499 4.24237 143.224 4.90521 143.224 5.87021C143.224 6.83864 142.484 7.50492 141.432 7.50492H140.279V9.19816H139.446V4.24237H141.458ZM140.279 6.85925H141.235C141.96 6.85925 142.372 6.4987 142.372 5.87365C142.372 5.24872 141.96 4.89147 141.238 4.89147H140.279V6.85925ZM143.431 8.1712C143.431 7.53584 143.955 7.17185 144.922 7.11689L145.959 7.05849V6.78368C145.959 6.38204 145.673 6.16219 145.163 6.16219C144.743 6.16219 144.438 6.3613 144.375 6.66689H143.624C143.646 6.02479 144.301 5.55775 145.186 5.55775C146.137 5.55775 146.758 6.01792 146.758 6.73229V9.19803H145.989V8.60389H145.97C145.751 8.99192 145.267 9.23568 144.743 9.23568C143.97 9.23568 143.431 8.80999 143.431 8.1712ZM145.959 7.85186V7.57362L145.033 7.62858C144.512 7.6595 144.241 7.83799 144.241 8.15045C144.241 8.45274 144.524 8.64854 144.966 8.64854C145.531 8.64854 145.959 8.31534 145.959 7.85186ZM147.466 10.5236V9.92957C147.518 9.93631 147.644 9.94318 147.711 9.94318C148.079 9.94318 148.288 9.79917 148.414 9.42804L148.489 9.20833L147.079 5.6024H147.949L148.931 8.52831H148.95L149.931 5.6024H150.779L149.318 9.39026C148.983 10.2592 148.6 10.5443 147.789 10.5443C147.726 10.5443 147.522 10.5374 147.466 10.5236Z" fill="black"/>
</g>
<g clip-path="url(#clip6_74_194)">
<path opacity="0.07" d="M178.105 0H157.895C156.821 0 156 0.758333 156 1.75V12.25C156 13.2417 156.884 14 157.895 14H178.105C179.179 14 180 13.2417 180 12.25V1.75C180 0.758333 179.116 0 178.105 0Z" fill="black"/>
<path d="M178.106 0.583313C178.8 0.583313 179.369 1.10831 179.369 1.74998V12.25C179.369 12.8916 178.8 13.4166 178.106 13.4166H157.895C157.2 13.4166 156.632 12.8916 156.632 12.25V1.74998C156.632 1.10831 157.2 0.583313 157.895 0.583313H178.106Z" fill="#006FCF"/>
<path d="M161.666 5.98969L162.155 7.08402H161.181L161.666 5.98969ZM171.819 6.03519H169.938V6.5176H171.788V7.24035H169.942V7.77819H171.822V8.20927L173.134 6.89969L171.822 5.53469L171.819 6.03519ZM162.937 4.67019H165.46L166.02 5.79894L166.539 4.66669H173.089L173.77 5.36085L174.474 4.66669H177.482L175.259 6.91369L177.459 9.14669H174.406L173.725 8.45252L173.015 9.14669H162.335L162.023 8.45252H161.309L160.996 9.14669H158.526L160.602 4.66669H162.768L162.937 4.67019ZM168.408 5.29902H166.994L166.047 7.36169L165.02 5.29902H163.617V8.10485L162.316 5.29902H161.057L159.553 8.51435H160.535L160.847 7.82019H162.486L162.798 8.51435H164.516V6.21894L165.622 8.51785H166.374L167.473 6.22594V8.51844H168.394L168.409 5.29844L168.408 5.29902ZM174.307 6.91369L175.906 5.29902H174.755L173.744 6.30585L172.766 5.29902H169.043V8.51785H172.713L173.732 7.50402L174.71 8.51785H175.894L174.308 6.91369H174.307Z" fill="white"/>
</g>
<defs>
<clipPath id="clip0_74_194">
<rect width="24" height="14" fill="white"/>
</clipPath>
<clipPath id="clip1_74_194">
<rect width="24" height="14" fill="white" transform="translate(26)"/>
</clipPath>
<clipPath id="clip2_74_194">
<rect width="24" height="14" fill="white" transform="translate(52)"/>
</clipPath>
<clipPath id="clip3_74_194">
<rect width="24" height="14" fill="white" transform="translate(78)"/>
</clipPath>
<clipPath id="clip4_74_194">
<rect width="24" height="14" fill="white" transform="translate(104)"/>
</clipPath>
<clipPath id="clip5_74_194">
<rect width="24" height="14" fill="white" transform="translate(130)"/>
</clipPath>
<clipPath id="clip6_74_194">
<rect width="24" height="14" fill="white" transform="translate(156)"/>
</clipPath>
</defs>
</svg>
