<svg width="68" height="12" viewBox="0 0 68 12" fill="none" xmlns="http://www.w3.org/2000/svg">
<path d="M10.6424 4.13774L7.66701 3.70531L6.33693 1.00883C6.3006 0.935002 6.24084 0.875236 6.16701 0.838908C5.98185 0.747502 5.75685 0.823674 5.66427 1.00883L4.3342 3.70531L1.35881 4.13774C1.27677 4.14946 1.20177 4.18813 1.14435 4.24672C1.07493 4.31807 1.03668 4.41407 1.038 4.51361C1.03932 4.61315 1.0801 4.70809 1.15138 4.77758L3.30412 6.87641L2.79552 9.84008C2.7836 9.90902 2.79123 9.97993 2.81755 10.0448C2.84387 10.1096 2.88782 10.1657 2.94443 10.2068C3.00104 10.248 3.06804 10.2724 3.13783 10.2774C3.20762 10.2823 3.2774 10.2677 3.33927 10.235L6.0006 8.83578L8.66193 10.235C8.73459 10.2737 8.81896 10.2866 8.89982 10.2725C9.10373 10.2373 9.24084 10.044 9.20568 9.84008L8.69709 6.87641L10.8498 4.77758C10.9084 4.72016 10.9471 4.64516 10.9588 4.56313C10.9904 4.35805 10.8475 4.16821 10.6424 4.13774Z" fill="#FFC000"/>
<path d="M24.6407 4.13774L21.6653 3.70531L20.3352 1.00883C20.2989 0.935002 20.2391 0.875236 20.1653 0.838908C19.9801 0.747502 19.7551 0.823674 19.6626 1.00883L18.3325 3.70531L15.3571 4.13774C15.2751 4.14946 15.2001 4.18813 15.1426 4.24672C15.0732 4.31807 15.035 4.41407 15.0363 4.51361C15.0376 4.61315 15.0784 4.70809 15.1497 4.77758L17.3024 6.87641L16.7938 9.84008C16.7819 9.90902 16.7895 9.97993 16.8158 10.0448C16.8422 10.1096 16.8861 10.1657 16.9427 10.2068C16.9993 10.248 17.0663 10.2724 17.1361 10.2774C17.2059 10.2823 17.2757 10.2677 17.3376 10.235L19.9989 8.83578L22.6602 10.235C22.7329 10.2737 22.8173 10.2866 22.8981 10.2725C23.102 10.2373 23.2391 10.044 23.204 9.84008L22.6954 6.87641L24.8481 4.77758C24.9067 4.72016 24.9454 4.64516 24.9571 4.56313C24.9887 4.35805 24.8458 4.16821 24.6407 4.13774Z" fill="#FFC000"/>
<path d="M38.6407 4.13774L35.6653 3.70531L34.3352 1.00883C34.2989 0.935002 34.2391 0.875236 34.1653 0.838908C33.9801 0.747502 33.7551 0.823674 33.6626 1.00883L32.3325 3.70531L29.3571 4.13774C29.2751 4.14946 29.2001 4.18813 29.1426 4.24672C29.0732 4.31807 29.035 4.41407 29.0363 4.51361C29.0376 4.61315 29.0784 4.70809 29.1497 4.77758L31.3024 6.87641L30.7938 9.84008C30.7819 9.90902 30.7895 9.97993 30.8158 10.0448C30.8422 10.1096 30.8861 10.1657 30.9427 10.2068C30.9993 10.248 31.0663 10.2724 31.1361 10.2774C31.2059 10.2823 31.2757 10.2677 31.3376 10.235L33.9989 8.83578L36.6602 10.235C36.7329 10.2737 36.8173 10.2866 36.8981 10.2725C37.102 10.2373 37.2391 10.044 37.204 9.84008L36.6954 6.87641L38.8481 4.77758C38.9067 4.72016 38.9454 4.64516 38.9571 4.56313C38.9887 4.35805 38.8458 4.16821 38.6407 4.13774Z" fill="#FFC000"/>
<path d="M52.6424 4.13774L49.667 3.70531L48.3369 1.00883C48.3006 0.935002 48.2408 0.875236 48.167 0.838908C47.9819 0.747502 47.7569 0.823674 47.6643 1.00883L46.3342 3.70531L43.3588 4.13774C43.2768 4.14946 43.2018 4.18813 43.1444 4.24672C43.0749 4.31807 43.0367 4.41407 43.038 4.51361C43.0393 4.61315 43.0801 4.70809 43.1514 4.77758L45.3041 6.87641L44.7955 9.84008C44.7836 9.90902 44.7912 9.97993 44.8175 10.0448C44.8439 10.1096 44.8878 10.1657 44.9444 10.2068C45.001 10.248 45.068 10.2724 45.1378 10.2774C45.2076 10.2823 45.2774 10.2677 45.3393 10.235L48.0006 8.83578L50.6619 10.235C50.7346 10.2737 50.819 10.2866 50.8998 10.2725C51.1037 10.2373 51.2408 10.044 51.2057 9.84008L50.6971 6.87641L52.8498 4.77758C52.9084 4.72016 52.9471 4.64516 52.9588 4.56313C52.9904 4.35805 52.8475 4.16821 52.6424 4.13774Z" fill="#FFC000"/>
<path d="M66.6407 4.13774L63.6653 3.70531L62.3352 1.00883C62.2989 0.935002 62.2391 0.875236 62.1653 0.838908C61.9801 0.747502 61.7551 0.823674 61.6626 1.00883L60.3325 3.70531L57.3571 4.13774C57.2751 4.14946 57.2001 4.18813 57.1426 4.24672C57.0732 4.31807 57.035 4.41407 57.0363 4.51361C57.0376 4.61315 57.0784 4.70809 57.1497 4.77758L59.3024 6.87641L58.7938 9.84008C58.7819 9.90902 58.7895 9.97993 58.8158 10.0448C58.8422 10.1096 58.8861 10.1657 58.9427 10.2068C58.9993 10.248 59.0663 10.2724 59.1361 10.2774C59.2059 10.2823 59.2757 10.2677 59.3376 10.235L61.9989 8.83578L64.6602 10.235C64.7329 10.2737 64.8173 10.2866 64.8981 10.2725C65.102 10.2373 65.2391 10.044 65.204 9.84008L64.6954 6.87641L66.8481 4.77758C66.9067 4.72016 66.9454 4.64516 66.9571 4.56313C66.9887 4.35805 66.8458 4.16821 66.6407 4.13774Z" fill="#FFC000"/>
</svg>
